<svg id="Layer_1" data-name="Layer 1" xmlns="http://www.w3.org/2000/svg" viewBox="0 0 352.4 352.85"><defs><style>.cls-1{fill:#fed0a2;}.cls-2{fill:#fffef8;}.cls-3{fill:#f3925f;}.cls-4{fill:#454850;}.cls-5{fill:#34363b;}.cls-6{fill:#c97d69;}.cls-7{fill:#b3614e;}.cls-8{fill:#fff1e2;}.cls-9{fill:#fff;}.cls-10{fill:#f1698b;}.cls-11{fill:#f5909e;}.cls-12{fill:#f6af71;}.cls-13{fill:#ef834f;}</style></defs><title>pack</title><rect class="cls-1" width="352.4" height="352.4"/><path class="cls-2" d="M153.07,98s23.7,41.42,18.95,55.7-20.66,15.2-20.66,15.2Z"/><path class="cls-3" d="M165.36,352.85H132.27c-2.37-1.61.64-17.33.64-17.33s9-3.43,10.59,3.54,11.5,9.18,16.76,10C163.86,349.68,165,351.65,165.36,352.85Z"/><path class="cls-3" d="M116.29,352.85H83.2c-2.37-1.61.64-17.33.64-17.33s9-3.43,10.59,3.54,11.5,9.18,16.76,10C114.79,349.68,115.93,351.65,116.29,352.85Z"/><path class="cls-4" d="M156.46,192.5s-1.49,18.55-3.24,40.86c-2.38,30.3-8.78,105.42-8.78,105.42s-4.2,3.58-13.51,1.62a294.08,294.08,0,0,1-10.29-55.49l-.11-1.46c-2.2-30.11-5.63-93.52-5.63-93.52Z"/><path class="cls-5" d="M157,186.09s-2,25-3.74,47.27l-32.58,51.55-.11-1.46c-2.2-30.11-5.63-93.52-5.63-93.52Z"/><path class="cls-4" d="M147.47,186.09s-23.63,58.81-31.18,81.11c-5.38,15.88-20.55,71.59-20.55,71.59s-6.6,2-12.14-1.87c0,0-5.65-56.92,5.76-73,6.05-8.51,1.5-88.51,26-89.2S147.47,186.09,147.47,186.09Z"/><path class="cls-6" d="M136.91,99.39a14.75,14.75,0,0,1-10.18,1.37,21.12,21.12,0,0,1-6.9-2.91,20.34,20.34,0,0,1-2.78-2.1s.12-.18.33-.52c1.07-1.82,4.3-8.38,2.86-18.9,0-.14,1,.06,2.6.43,4.69,1.11,14.11,3.78,14.53,3.9h0s.12,2.21.5,6.18c0,.35.07.72.11,1.09s.1,1,.15,1.47C138.59,93.53,136.91,99.39,136.91,99.39Z"/><path class="cls-7" d="M137.89,86.84c-7,1.6-17.44-8.73-17.44-8.73a11,11,0,0,1,2.39-1.36c4.69,1.11,14.11,3.78,14.53,3.9h0S137.5,82.87,137.89,86.84Z"/><path class="cls-2" d="M160.15,176.18c-.51,6.74-1.93,11.57-5.06,11.57a104.9,104.9,0,0,1-30.47,5A76.51,76.51,0,0,1,113,191.52c-3.89-.66-7-1.32-7-1.32-3.34-.77-7-2.83-6.52-6.63.26-2,.45-4.62.58-7.64l0-.58c.37-8.81.31-21,.35-32.57,0-7.14.1-14.08.34-19.93,0,0-3.27-23,.36-26.76,4.26-4.41,16.77-5.77,17.55-5.6l.71-.15s10.65,6,18.57,1.56c0,0,.21-.23.24-.22,1.85.62,11.53,2.79,14.85,6.3,1.15,1.21,5.72,8.63,5.85,16.78.17,11.36-.27,24.27-.27,24.28.12,1.85.32,4.23.54,6.94.23,2.89.49,6.16.71,9.57.11,1.72.21,3.47.29,5.22A133.61,133.61,0,0,1,160.15,176.18Z"/><path class="cls-8" d="M118.75,90.5s11.79,12.16,20.22,9.67c0,0,1.12-1.64-2.67-2.17S128.4,97.69,118.75,90.5Z"/><path class="cls-6" d="M140.27,80.09a35.6,35.6,0,0,1-6.55,1.53c-5.37.72-12.42.3-14.64-6.19-3.73-10.93-8.5-17.48,2.48-21.94,5.88-2.39,9.64-2.52,12.2-1.6a8.84,8.84,0,0,1,4.52,3.91C140.42,59.14,144.71,78.18,140.27,80.09Z"/><path class="cls-5" d="M139.12,49.19c2.48.6,3.6,4.51,1.24,6.14C136.12,58.25,130.95,57.1,129,58c-2.73,1.21-3.22,5.8-3.27,7.25s-.24,2.69-4,1.81a1.8,1.8,0,0,0-1.35.08c-1.54.91.43,5.34,1,6.3,0,0,.85,3.17-1,4.71-.23.18-4,1.81-12.92-11.92a12.75,12.75,0,0,1-.58-11.68c2.17-4.67,8.9-10.46,17-10.46C130.31,44,133.87,47.92,139.12,49.19Z"/><path class="cls-9" d="M140.35,73s.23,1.41-3.06,2.54c0,0-2.76.95-3.27-.5A9.37,9.37,0,0,1,140.35,73Z"/><path class="cls-8" d="M132.34,163c1.18,2.21-3.89,5.13-3.89,5.13s-14,6.67-28.39,7.8l0-.58c.37-8.81.31-21,.35-32.57C100.44,142.78,130.4,159.35,132.34,163Z"/><rect class="cls-10" x="115.89" y="117.16" width="54.76" height="55.18" transform="translate(286.53 289.5) rotate(180)"/><rect class="cls-11" x="143.27" y="117.16" width="54.76" height="55.18" transform="translate(341.3 289.5) rotate(180)"/><polygon class="cls-8" points="115.92 158.35 124.59 158.35 123.83 155.36 124.59 153.23 115.92 153.23 115.92 158.35"/><polygon class="cls-2" points="143.27 134.24 151.94 134.24 151.18 131.25 151.94 129.12 143.27 129.12 143.27 134.24"/><polygon class="cls-8" points="143.27 129.12 134.59 129.12 135.35 132.1 134.59 134.24 143.27 134.24 143.27 129.12"/><polygon class="cls-2" points="198.03 158.94 189.35 158.94 190.12 161.93 189.35 164.06 198.03 164.06 198.03 158.94"/><path class="cls-6" d="M199.82,138.77a3.06,3.06,0,0,0-2.29-2.63c-1.75-.44-4.23-.77-4.53.78-.47,2.42,2.76,8.53,4.88,8.53C199.48,145.45,200.12,141.53,199.82,138.77Z"/><path class="cls-6" d="M128.45,168.13s8.87,5.85,12.29,6.23c2.33.26,11.53-.12,11.58-1.28.07-1.64-5.62-3.38-7.09-4s-2.63-1.42-2.62-2.06,5.7,1.47,5.09.08-5.87-3.8-7.14-4-5.37,1.16-7,.42S128.45,168.13,128.45,168.13Z"/><path class="cls-2" d="M104.22,93.95S98.14,96.51,90.92,110s-14,42-11.12,46.69,27.57,15.28,49.06,12.44c0,0,5.33-4.85,4.25-6.72,0,0-36-14.69-36-16.44s16.2-29,16.93-36.51S104.22,93.95,104.22,93.95Z"/><path class="cls-5" d="M201.66,351.87l25.9-.11a32.8,32.8,0,0,0-.13-7.81,2.21,2.21,0,0,0-.64-1.18,9.35,9.35,0,0,1-6.22,0A12.8,12.8,0,0,1,216,340c-.27.26-5.6,5.38-8.07,5.39S201.49,346.59,201.66,351.87Z"/><path class="cls-4" d="M212.92,341.23s10.33,4.91,16.4,1.55c0,0,2.37-8.43,5.19-20.69,2.34-10.15,5-22.92,6.9-35.71.1-.67.2-1.41.29-2.2,1.52-12.89,1.35-39.94-24.77-32.66Z"/><path class="cls-5" d="M234.51,322.09c2.34-10.15,5-22.92,6.9-35.71.1-.67.2-1.41.29-2.2-1.61-9-4.12-16.27-7-17.15C234.65,267,224.53,310.81,234.51,322.09Z"/><path class="cls-5" d="M236.78,351.72l25.9-.11a32.8,32.8,0,0,0-.13-7.81,2.21,2.21,0,0,0-.64-1.18,9.35,9.35,0,0,1-6.22,0,12.8,12.8,0,0,1-4.59-2.83c-.27.26-5.6,5.38-8.07,5.39S236.61,346.44,236.78,351.72Z"/><path class="cls-6" d="M230.87,191.45l13.7,6.93,2.7-9.49a29.07,29.07,0,0,1-2.57-8.64,36.09,36.09,0,0,1-.32-7.8l-11.11,5.75a21.12,21.12,0,0,1,.45,2.55,18.54,18.54,0,0,1-.17,6A8.25,8.25,0,0,1,230.87,191.45Z"/><path class="cls-7" d="M233.56,186.69c6.33-.2,11.14-6.45,11.14-6.45l-11,.49A18.54,18.54,0,0,1,233.56,186.69Z"/><path class="cls-6" d="M230.47,183.18s12.64,3.28,17-6.78c4.66-10.86-.54-18.73-4.83-19.25-8.56-1-13.51,2.26-15,5.71S223.5,181.43,230.47,183.18Z"/><path class="cls-5" d="M245.19,179.92s1.46-4.35,1.28-6.67c0,0,3.28-4.22,1.35-5.25s-3,1.46-3.39,1-1.16-8.74-3.5-8.47-10.95,3-14.74-.26,5.33-16,20.9-11.17S259.55,171.22,245.19,179.92Z"/><path class="cls-5" d="M254.78,155.81a5.47,5.47,0,0,0-.07-3.6,5.75,5.75,0,0,1-.84,3C253.07,156.12,254.78,155.81,254.78,155.81Z"/><path class="cls-5" d="M254.45,154.34a3.1,3.1,0,0,1,2.84,1.25,2.47,2.47,0,0,0-2.72.07Z"/><path class="cls-9" d="M235,178.21a3.44,3.44,0,0,1-2.39,1.17c-1.37,0-3.34-.33-3.69-.8a4.89,4.89,0,0,1-.44-1.8A19.27,19.27,0,0,1,235,178.21Z"/><path class="cls-4" d="M263.9,251c1.13.15-2.92,49.54-.6,58.8s.15,34.31.15,34.31a31.74,31.74,0,0,1-18.27-1s-3.08-30-5.63-38.63c-5.49-18.51-8.42-51.81-8.42-51.81Z"/><polygon class="cls-6" points="218.71 202.99 210.7 223.98 221.76 225.34 224 208.24 218.71 202.99"/><path class="cls-10" d="M215,257.63A111.58,111.58,0,0,0,242,260.09a200.71,200.71,0,0,0,23.83-2.22c-.26.07-2.54-46.83-2.54-46.83l1.31-14.7c-4.13-5.12-11.87-6.69-17.3-7.44-2.07,2.14-6.15,5.28-10.75,4.71-3.45-.44-4.1-2.06-4.05-4-7.2,1.22-12.24,7.25-12.24,7.25Z"/><path class="cls-6" d="M264.34,195.6s14.34,27,12.49,34.39-22.23,10.21-22.23,10.21l-1.34-3.89s15.16-10.22,13.44-11.92-8.11-13-8.46-14.7S259.55,196.14,264.34,195.6Z"/><path class="cls-10" d="M257.6,191.39a20.54,20.54,0,0,1,9.2,7.07,71.61,71.61,0,0,1,6.13,11.37s-5.46,6.28-13.25,6.23S257.6,191.39,257.6,191.39Z"/><path class="cls-10" d="M227.27,191.43s-5.73,2.42-7.94,6.63-4.91,13.47-4.91,13.47a32.45,32.45,0,0,0,5.74.32C223.41,211.76,227.27,191.43,227.27,191.43Z"/><path class="cls-4" d="M235.09,225.51l7.09-13.26a2.09,2.09,0,0,0,.13-1.62h0a6.56,6.56,0,0,1,.78-5,1.63,1.63,0,0,1,2.77,1.71,3.38,3.38,0,0,0-.45,2.3c.05.17.22.7,1.27,1.15a2.67,2.67,0,0,0,3.7-1.55,1.63,1.63,0,0,1,3,1.28,6.79,6.79,0,0,1-3.43,3.43h0a3.29,3.29,0,0,0-1.71,1.49l-7.09,13.27Z"/><path class="cls-4" d="M228.59,224.81l1.53-7.85a1.11,1.11,0,0,0-.19-.84h0a3.49,3.49,0,0,1-.38-2.66.86.86,0,0,1,1.67.43,1.8,1.8,0,0,0,.13,1.24c.05.08.22.32.82.39a1.42,1.42,0,0,0,1.64-1.36.86.86,0,0,1,1.72.18,3.61,3.61,0,0,1-1.21,2.28h0a1.75,1.75,0,0,0-.64,1l-1.53,7.86Z"/><path class="cls-5" d="M205,229.68l-5.53-11.87a1.82,1.82,0,0,0-1.06-.94h0a5.71,5.71,0,0,1-3.06-3.15,1.42,1.42,0,1,1,2.64-1,3,3,0,0,0,1.37,1.51,1.65,1.65,0,0,0,1.47-.28,2.32,2.32,0,0,0,.86-3.38,1.42,1.42,0,0,1,2.46-1.41,5.92,5.92,0,0,1,.6,4.19h0a2.87,2.87,0,0,0,.14,2l5.53,11.88Z"/><rect class="cls-3" x="191.61" y="220.17" width="40.58" height="33.46" transform="matrix(-1, 0, 0, -1, 424.81, 472.88)"/><rect class="cls-12" x="211.9" y="220.08" width="40.58" height="33.46" transform="matrix(-1, 0, 0, -1, 465.39, 472.62)"/><polygon class="cls-3" points="211.83 220.17 219.9 228.94 259.94 228.76 252.41 219.99 211.83 220.17"/><polygon class="cls-8" points="191.67 245.23 198.1 245.2 197.52 243.39 198.09 242.1 191.66 242.13 191.67 245.23"/><polygon class="cls-13" points="211.84 223.95 203.33 232.54 191.61 232.59 191.56 220.25 211.83 220.17 211.84 223.95"/><polygon class="cls-12" points="191.54 220.25 182.45 229.1 202.75 229.01 211.83 220.17 191.54 220.25"/><path class="cls-6" d="M253.63,236.17s-3.46-2.17-5.06-1.39-4.42,3.83-2.87,4.4,3.69.41,4.52.86a6,6,0,0,0,4.58.11C256.73,239.44,253.63,236.17,253.63,236.17Z"/><path class="cls-6" d="M253.48,236.15a14.24,14.24,0,0,1-.75-2c-.08-.5-.53-.29-.55.28s0,1.57,0,1.57Z"/></svg>