<svg id="Layer_1" data-name="Layer 1" xmlns="http://www.w3.org/2000/svg" viewBox="0 0 352.4 355.34"><defs><style>.cls-1{fill:#fac4c5;}.cls-2{fill:#263238;}.cls-3{fill:#fbbd9d;}.cls-4{fill:#ec996f;}.cls-5{fill:#455b64;}.cls-6{fill:#e7515b;}.cls-7{opacity:0.3;}.cls-8{fill:#fafbfb;}.cls-9{fill:#e0e0e0;}.cls-10{opacity:0.6;}</style></defs><title>photo</title><rect class="cls-1" width="352.4" height="352.4"/><path class="cls-2" d="M99.26,189.19a2.2,2.2,0,0,1-.14-.33l-.37-1c-.32-.87-.78-2.16-1.34-3.82s-1.21-3.72-1.81-6.16a42.71,42.71,0,0,1-1.28-8.41,28.08,28.08,0,0,1,1.35-10.2,20.32,20.32,0,0,1,2.57-5.16,26.75,26.75,0,0,1,4.1-4.53c1.54-1.41,3.19-2.76,4.77-4.25a28.75,28.75,0,0,0,4.28-5,37.57,37.57,0,0,0,5.21-12.84,81.82,81.82,0,0,0,1.65-13.86c.22-4.52.31-8.89.63-13a66.72,66.72,0,0,1,1.78-11.69,38.78,38.78,0,0,1,1.68-5.1,36,36,0,0,1,2.21-4.43,29.08,29.08,0,0,1,5.29-6.65A23.21,23.21,0,0,1,135.08,69a20.22,20.22,0,0,1,3.8-1.41l1-.23.35-.06-.34.11-1,.27a21.64,21.64,0,0,0-3.75,1.48A23.46,23.46,0,0,0,130,72.88a29.1,29.1,0,0,0-5.19,6.63,36,36,0,0,0-2.17,4.41A38.69,38.69,0,0,0,121,89a66.94,66.94,0,0,0-1.73,11.63c-.31,4.14-.38,8.51-.6,13A81.62,81.62,0,0,1,117,127.58a37.87,37.87,0,0,1-5.28,13,29.1,29.1,0,0,1-4.35,5.09c-1.6,1.5-3.25,2.84-4.78,4.24a26.46,26.46,0,0,0-4.05,4.45A20,20,0,0,0,96,159.4a27.91,27.91,0,0,0-1.39,10.07,43.07,43.07,0,0,0,1.21,8.36c.58,2.43,1.21,4.48,1.74,6.16l1.26,3.85.33,1A2.2,2.2,0,0,1,99.26,189.19Z"/><path class="cls-2" d="M195.67,61.52c7.8-1.57,15.44,4.45,18.82,11.65s3.65,15.41,4.65,23.3c3.88,30.78,19.33,59,37.74,84,10.32,14,22.11,28.35,23.77,45.66.34,3.53.15,7.37-2,10.23s-6.69,4.07-9.28,1.64L188,232.76Z"/><path class="cls-2" d="M178.11,59.08c-11-9.1-29.61-6.22-39.87,2.8s-15.44,22.7-17.08,36.26c-1.31,10.81-.62,21.77-1.44,32.63s-3.37,22-10.2,30.51c-7.83,9.72-21,15.63-24.76,27.51-2.09,6.53-.85,13.63.8,20.29,1.34,5.4,3.39,11.31,8.36,13.82,4.18,2.12,9.19,1.17,13.77.17q27.23-5.93,54.43-12c2.8-.62,5.78-1.35,7.73-3.45,2.18-2.36,2.51-5.82,2.72-9,3.19-47.76,5-91.68,5.55-139.55"/><path class="cls-3" d="M206.53,76.32l.06,7.7L210,199c.19,13.38-9,24.61-23.37,24.7h0c-14.47.09-26.53-10.78-26.94-24.29-.43-14.18-1.15-29.11-1.15-29.11s-18.36-2.53-22.8-26.27c-2.21-11.8-2.15-31.26-1.59-47.18A25.18,25.18,0,0,1,161.3,72.63Z"/><path class="cls-2" d="M138.68,111.61c.39.39,2.66-1.39,5.95-1.47s5.75,1.5,6.09,1.08c.17-.18-.24-.89-1.31-1.63a8.39,8.39,0,0,0-4.89-1.36,8.06,8.06,0,0,0-4.72,1.67C138.81,110.7,138.49,111.43,138.68,111.61Z"/><path class="cls-2" d="M174.46,110.43a3.06,3.06,0,0,0,3,3,2.92,2.92,0,0,0,3.08-2.84,3.06,3.06,0,0,0-3-3A2.93,2.93,0,0,0,174.46,110.43Z"/><path class="cls-2" d="M171,106.59c.39.39,2.66-1.39,6-1.47s5.75,1.5,6.09,1.08c.17-.18-.23-.89-1.31-1.63a8.39,8.39,0,0,0-4.89-1.36,8.07,8.07,0,0,0-4.72,1.67C171.17,105.68,170.85,106.41,171,106.59Z"/><path class="cls-2" d="M159.77,131.32c0-.19-2-.48-5.37-.82-.84-.06-1.64-.21-1.8-.78a4.28,4.28,0,0,1,.49-2.51l2.31-6.47c3.2-9.2,5.49-16.76,5.12-16.89s-3.27,7.23-6.47,16.44l-2.2,6.5a4.86,4.86,0,0,0-.35,3.31,2.11,2.11,0,0,0,1.42,1.19,5.71,5.71,0,0,0,1.43.16C157.69,131.55,159.76,131.5,159.77,131.32Z"/><path class="cls-4" d="M158.57,170.31a60.67,60.67,0,0,0,31.69-9.4s-7.29,16.59-31.22,15Z"/><path class="cls-4" d="M161.38,139.21a5.93,5.93,0,0,1,5.25-2.35,5.41,5.41,0,0,1,3.79,1.9,3.43,3.43,0,0,1,.37,3.91,4,4,0,0,1-4.28,1.21,12.47,12.47,0,0,1-4.27-2.39,3.65,3.65,0,0,1-1-.95,1.1,1.1,0,0,1,0-1.22"/><path class="cls-2" d="M169.52,133.33c-.54,0-.44,3.55-3.43,6.17s-6.8,2.33-6.81,2.83c0,.22.87.67,2.47.67a8.89,8.89,0,0,0,5.69-2.16,7.75,7.75,0,0,0,2.65-5.17C170.18,134.17,169.76,133.3,169.52,133.33Z"/><path class="cls-2" d="M172.17,94.9c.35.89,3.62.37,7.49.73s7,1.33,7.51.51c.22-.39-.35-1.22-1.63-2a13.09,13.09,0,0,0-11.43-.94C172.72,93.76,172,94.48,172.17,94.9Z"/><path class="cls-2" d="M139.15,105.5c.6.73,2.84-.11,5.57-.22s5,.36,5.56-.43c.22-.39-.16-1.12-1.19-1.8a8.07,8.07,0,0,0-9,.52C139.18,104.36,138.88,105.14,139.15,105.5Z"/><path class="cls-2" d="M156.26,98.56c-1.48-1.39-1.86-3.33-2.21-5.2a11.58,11.58,0,0,0-2.41,7,94.62,94.62,0,0,0-24.54.59c-3.91-11.83.93-25.59,10.43-33.66s24.1-11.78,36.39-9.67c4,.09,9.77,4.31,9.77,4.31s5.66-2.17,10.12-1.87a19.2,19.2,0,0,1,15.56,9c3.49,5.55,4.4,12.33,4.5,18.89a88.14,88.14,0,0,1-3.76,26.78h0c-9.63-2.17-14.88-7.55-19.72-16.15-3.15-5.6-5.8-16-7.57-21.81,0,0-3.85,1.41-7.79,6.43,0,0-7.07,8.47-4.35,15Z"/><path class="cls-3" d="M206,113.32c1.58-1.27,5.5-1.75,7.25-.71a8.29,8.29,0,0,1,3.48,4.82,9.93,9.93,0,0,1-1.74,9.35c-2.2,2.48-6.19,3.35-9,1.59"/><path class="cls-4" d="M208.51,124.55a5.85,5.85,0,0,0,2.18-.2,4.12,4.12,0,0,0,1.89-1.32,3.94,3.94,0,0,0-.41-5.18,4.12,4.12,0,0,0-2.08-1,5.85,5.85,0,0,0-2.19.15,1.25,1.25,0,0,1,.55-.28,3.92,3.92,0,0,1,1.68-.17,4.25,4.25,0,0,1,2.3,1,4.24,4.24,0,0,1,.46,5.72,4.25,4.25,0,0,1-2.11,1.37,3.92,3.92,0,0,1-1.69.1A1.25,1.25,0,0,1,208.51,124.55Z"/><path class="cls-5" d="M140.63,101.08a.68.68,0,0,1,0-.2l-.06-.58c-.05-.51-.11-1.26-.18-2.23-.13-1.94-.28-4.75-.21-8.23a51.26,51.26,0,0,1,1.64-12.1,32.06,32.06,0,0,1,7-13.14,24.06,24.06,0,0,1,6-4.89,21.18,21.18,0,0,1,6.82-2.43,28.1,28.1,0,0,1,12.15.84,46.49,46.49,0,0,1,7.7,2.91c.88.42,1.55.76,2,1l.51.28.17.11-.19-.07-.53-.24c-.46-.22-1.14-.54-2-.94a50.31,50.31,0,0,0-7.71-2.77,28.16,28.16,0,0,0-12-.74A20.92,20.92,0,0,0,155,60.08a23.79,23.79,0,0,0-5.93,4.81,32,32,0,0,0-7,13,52.31,52.31,0,0,0-1.71,12c-.11,3.46,0,6.27.07,8.21l.1,2.23,0,.58A.69.69,0,0,1,140.63,101.08Z"/><path class="cls-5" d="M160,98.71a2.35,2.35,0,0,1-.1-.51l-.19-1.48c-.15-1.29-.36-3.15-.5-5.46a48.57,48.57,0,0,1,.11-8.14,28.29,28.29,0,0,1,2.68-9.6,20.5,20.5,0,0,1,2.87-4.33A18.55,18.55,0,0,1,168.56,66,24,24,0,0,1,176,62.75a34.09,34.09,0,0,1,5.41-.92c.65-.06,1.15-.09,1.49-.1a2.35,2.35,0,0,1,.52,0,2.36,2.36,0,0,1-.51.08l-1.48.18a39,39,0,0,0-5.35,1,24.37,24.37,0,0,0-7.32,3.28,19,19,0,0,0-6.34,7.38,28.45,28.45,0,0,0-2.67,9.45,51.16,51.16,0,0,0-.2,8.08c.1,2.31.27,4.17.36,5.46l.11,1.49A2.35,2.35,0,0,1,160,98.71Z"/><path class="cls-5" d="M223,115.64a7.84,7.84,0,0,0-.35-2.76,10.54,10.54,0,0,0-5-5.51c-2.77-1.71-6.67-2.2-10.82-3.28a18.12,18.12,0,0,1-6.18-2.74,19.4,19.4,0,0,1-4.84-5.41,54.09,54.09,0,0,1-3.36-6.42c-1-2.13-1.83-4.22-2.55-6.24a82.92,82.92,0,0,1-3.13-11,75.89,75.89,0,0,1-1.23-7.59c-.11-.9-.16-1.61-.19-2.08a4.56,4.56,0,0,1,0-.73,4.62,4.62,0,0,1,.12.72c.07.47.14,1.17.27,2.07.25,1.79.65,4.39,1.37,7.55a86.88,86.88,0,0,0,3.21,10.9c.73,2,1.59,4.09,2.56,6.2a54.71,54.71,0,0,0,3.34,6.37A19.1,19.1,0,0,0,201,101a17.84,17.84,0,0,0,6,2.7c2.06.56,4.07.94,5.92,1.43a18.24,18.24,0,0,1,5,2,10.57,10.57,0,0,1,5,5.72,6.68,6.68,0,0,1,.25,1.19,8.83,8.83,0,0,1,0,.89A4.55,4.55,0,0,1,223,115.64Z"/><path class="cls-2" d="M271,208s.26-.27.73-.81a12.14,12.14,0,0,0,1.71-2.58,16.68,16.68,0,0,0,1.15-11.12c-1-4.73-3.81-9.89-7.53-15.07a125.41,125.41,0,0,0-13.83-15.53c-5.26-5.19-10.39-10.05-14.63-14.89a77.42,77.42,0,0,1-10-13.83,46.33,46.33,0,0,1-4.3-10.65c-.16-.66-.32-1.24-.42-1.75l-.23-1.3-.13-.8a1.31,1.31,0,0,1,0-.28,1.33,1.33,0,0,1,.07.27l.17.79.27,1.29c.12.51.29,1.08.46,1.74A48.07,48.07,0,0,0,228.89,134a78.7,78.7,0,0,0,10,13.71c4.24,4.8,9.36,9.64,14.63,14.84a123.29,123.29,0,0,1,13.85,15.61c3.72,5.22,6.52,10.43,7.5,15.24a18.29,18.29,0,0,1,.23,6.55,14.85,14.85,0,0,1-1.52,4.71,11.44,11.44,0,0,1-1.8,2.56A7.2,7.2,0,0,1,271,208Z"/><path class="cls-2" d="M196.85,60.27a16.27,16.27,0,0,1-5.71-14.85,17.31,17.31,0,0,1,9.62-12.78,16.68,16.68,0,0,1,14.15-.08,14.81,14.81,0,0,1,8.24,11.34,13.33,13.33,0,0,1-5.86,12.57,36.16,36.16,0,0,1-6.54,2.78,12.87,12.87,0,0,0-5.87,3.86c-1.43,1.9-1.83,4.74-.37,6.61"/><path class="cls-5" d="M199,36.34a2.13,2.13,0,0,1,.27-.42,3.61,3.61,0,0,1,.38-.47,5.46,5.46,0,0,1,.57-.6,9.35,9.35,0,0,1,4.68-2.31,10,10,0,0,1,3.65,0,9.88,9.88,0,0,1,3.86,1.63,12.1,12.1,0,0,1,4.94,8,14.37,14.37,0,0,1-1.91,9.26A16.83,16.83,0,0,1,210,57a20.17,20.17,0,0,1-4.72,2.27c-.59.2-1.05.32-1.37.39a2.13,2.13,0,0,1-.49.09,2.15,2.15,0,0,1,.46-.18c.31-.1.76-.25,1.34-.47a21.82,21.82,0,0,0,4.61-2.37,16.84,16.84,0,0,0,5.21-5.53,14.1,14.1,0,0,0,1.82-9,11.79,11.79,0,0,0-4.74-7.74,9.6,9.6,0,0,0-3.7-1.6,9.86,9.86,0,0,0-3.53,0A9.49,9.49,0,0,0,200.31,35C199.39,35.78,199,36.37,199,36.34Z"/><path class="cls-6" d="M209.1,60.83a4.52,4.52,0,0,0-3.68-1.49c-1.37,0-2.72.36-4.09.46a11.35,11.35,0,0,1-6.47-1.5,1.1,1.1,0,0,0-1.73.1,1.74,1.74,0,0,0,.35,1.94,3.9,3.9,0,0,0,1.82,1c3,.88,6.33.49,9.1,1.9,1.31.67,2.75,1.75,4.09,1.14S209.93,61.92,209.1,60.83Z"/><path class="cls-2" d="M195.1,61.24s0,0,0,.11v.12l-.12-.13a1.88,1.88,0,0,1-.19-1.44,2,2,0,0,1,.51-1c.22-.21.41-.25.44-.2a6.53,6.53,0,0,0-.53,1.29,6.4,6.4,0,0,0-.1,1.31H195S195.07,61.23,195.1,61.24Z"/><path class="cls-2" d="M198.08,61.84s-.19,0-.32-.27a1.59,1.59,0,0,1,.25-1.85c.18-.18.34-.22.38-.18s-.3.49-.37,1.12S198.17,61.76,198.08,61.84Z"/><path class="cls-2" d="M201.2,62.51c-.11-.07.18-.67.2-1.45s-.2-1.41-.09-1.47.56.56.52,1.48S201.28,62.59,201.2,62.51Z"/><path class="cls-2" d="M204.79,63.81a5.39,5.39,0,0,0,.52-2.26,5.38,5.38,0,0,0-.91-2.13s.3.08.62.42a2.9,2.9,0,0,1,.3,3.44C205.07,63.68,204.83,63.84,204.79,63.81Z"/><path class="cls-2" d="M207.1,64.29c0-.05.2-.25.48-.64a3.26,3.26,0,0,0,.32-3.46c-.21-.43-.41-.67-.36-.72s.32.13.62.56a3,3,0,0,1-.35,3.82C207.44,64.22,207.13,64.33,207.1,64.29Z"/><path class="cls-5" d="M208.62,66.52s0,.1.07.29a3.48,3.48,0,0,1,0,.87,4.91,4.91,0,0,1-1.45,2.8,5.81,5.81,0,0,1-1.84,1.24,7.56,7.56,0,0,1-2.48.55,13.87,13.87,0,0,1-5.64-1.07A19.7,19.7,0,0,1,189,65.06a18.15,18.15,0,0,1-1.73-2.64,5.29,5.29,0,0,1-.47-1.06,36.61,36.61,0,0,0,2.43,3.5,20.38,20.38,0,0,0,8.23,5.93,13.88,13.88,0,0,0,5.47,1.07A6.18,6.18,0,0,0,207,70.26a5,5,0,0,0,1.5-2.61C208.65,66.93,208.57,66.52,208.62,66.52Z"/><path class="cls-6" d="M291.72,271.87c-1-9.63-6.43-18.2-12.47-25.77S266.4,231.49,261.78,223c-3.1-5.71-5.12-11.94-7.84-17.84s-6.32-11.64-11.7-15.29S222.42,181,211,183l-1.61,2.67c-17,6.17-35.17,7-50.22-.48-8.28,3.07-43.15,11.7-49.29,22.06-1.46,2.47-1,8.41.51,16.23L82.81,207l-24.49,63.5-.15.49a32.46,32.46,0,0,0,20.67,40h0A64.48,64.48,0,0,0,127,295l4.58-4.07c3.57,9.68,6.11,16.17,6.11,16.17l-15.86,48H244l-18.1-50.8,5.83-15c.76,1.33,1.55,2.66,2.4,4,5.47,8.76,18.06,18.27,28.39,18.14,6-.08,13.13-4.1,17.7-8C288.64,296.21,292.87,282.9,291.72,271.87Z"/><path class="cls-2" d="M82.81,207l.19.09.53.3,2,1.18,7.63,4.49,26.41,15.68.16.09-.08.17a76.08,76.08,0,0,0-5.46,19.64c-1.37,8.61-2.12,16.92-3.75,24.34a71.28,71.28,0,0,1-3,10.33,47.44,47.44,0,0,1-4.19,8.39,35.07,35.07,0,0,1-9.17,9.92A27.29,27.29,0,0,1,91,303.57l-.86.42-.3.13.28-.17.84-.46a30.78,30.78,0,0,0,3.09-2,35.62,35.62,0,0,0,9-9.95,47.64,47.64,0,0,0,4.11-8.35,71.73,71.73,0,0,0,2.95-10.29c1.6-7.39,2.34-15.69,3.72-24.32a75.82,75.82,0,0,1,5.52-19.74l.08.26L93.07,213.31l-7.57-4.59-2-1.24-.51-.33Z"/><path class="cls-2" d="M231.76,289.31a1.74,1.74,0,0,1-.22-.39l-.54-1.16-1.91-4.29c-1.59-3.64-3.82-8.63-6.11-14.24a39.3,39.3,0,0,1-2.39-8.22,14.21,14.21,0,0,1,.29-7,12.11,12.11,0,0,1,2.49-4c.38-.41.68-.72.89-.92a1.73,1.73,0,0,1,.34-.29s-.4.47-1.1,1.32a12.69,12.69,0,0,0-2.32,4,14.19,14.19,0,0,0-.19,6.81,40.43,40.43,0,0,0,2.4,8.12c2.28,5.59,4.48,10.62,6,14.28l1.78,4.34.46,1.19A1.75,1.75,0,0,1,231.76,289.31Z"/><path class="cls-2" d="M281.63,273a2.86,2.86,0,0,1-.25-.52l-.64-1.52-2.32-5.59c-2-4.72-4.7-11.23-7.84-18.38s-6.11-13.56-8.18-18.22c-1.11-2.27-2.81-3.7-4.21-3.93a5.13,5.13,0,0,0-1.62,0,3.93,3.93,0,0,1-.57.07l.14-.05a4.1,4.1,0,0,1,.42-.1,4.73,4.73,0,0,1,1.66-.07c1.48.18,3.29,1.65,4.45,4,2.15,4.65,5.18,11,8.3,18.19s5.83,13.68,7.73,18.43c.94,2.38,1.69,4.31,2.2,5.65l.57,1.55A2.87,2.87,0,0,1,281.63,273Z"/><path class="cls-2" d="M283.54,267.07c-.07,0-.36-1-1-2.66a30.14,30.14,0,0,0-7.69-11.15c-1.29-1.18-2.17-1.83-2.13-1.89a2.63,2.63,0,0,1,.66.39A18.34,18.34,0,0,1,275,253a26.3,26.3,0,0,1,7.78,11.27,18.34,18.34,0,0,1,.6,2A2.63,2.63,0,0,1,283.54,267.07Z"/><path class="cls-2" d="M209.56,296.4a4.11,4.11,0,0,1-.51.47c-.34.3-.84.74-1.51,1.28-1.32,1.1-3.26,2.65-5.74,4.47a89.56,89.56,0,0,1-20.93,11.67,63.36,63.36,0,0,1-12.79,3.35,52.47,52.47,0,0,1-10.79.53,44,44,0,0,1-7.21-1c-.84-.17-1.48-.38-1.92-.49a4.08,4.08,0,0,1-.66-.21,4.13,4.13,0,0,1,.68.12c.44.08,1.09.26,1.93.41a48.51,48.51,0,0,0,7.2.84,54,54,0,0,0,10.71-.62,64.61,64.61,0,0,0,12.7-3.37,93.37,93.37,0,0,0,20.91-11.51c2.49-1.78,4.46-3.3,5.81-4.35L209,296.8A4.12,4.12,0,0,1,209.56,296.4Z"/><g class="cls-7"><path d="M207.77,297.88c-10.32,5.21-20.93,10.5-32.42,11.71a88.42,88.42,0,0,0-9,1,13.33,13.33,0,0,0-7.81,4.3c-.57.72-1,1.76-.5,2.51a2.37,2.37,0,0,0,1.76.74c8.85.95,17.8-1.52,25.76-5.51s15.08-9.43,22.14-14.85"/></g><g class="cls-7"><path d="M221,262.37c.79,7.24-.93,12.78-1.09,20.06s1.84,16,6,21.91l5.84-15s-1.95-5.08-3.15-7.6a135.39,135.39,0,0,1-7.41-18.71"/></g><g class="cls-7"><path d="M89.79,304.13c4.43,1.86,9.62.68,13.44-2.23,6.31-4.8,10.24-12.21,12.24-19.89s2.23-15.69,2.34-23.62.1-15.92,1.65-23.7c.15-.73.13-1.77-.61-1.92s-1.11.5-1.33,1.08c-3,7.72-4.4,20.72-5.47,30-1.12,9.78-2.45,13.2-5.56,21.36s-8.16,14.57-16.71,18.9"/></g><path class="cls-2" d="M257.42,227.51a2.65,2.65,0,0,1,.23.51,8.21,8.21,0,0,1,.38,1.55,17.82,17.82,0,0,1-.34,5.84c-.23,1.22-.54,2.54-.91,3.94a37.45,37.45,0,0,1-1.41,4.43,31.64,31.64,0,0,1-5.46,9.12,26.37,26.37,0,0,1-8.35,6.57,20.76,20.76,0,0,1-8.43,2,16.82,16.82,0,0,1-5.79-.87,10.58,10.58,0,0,1-1.47-.6,2.65,2.65,0,0,1-.49-.26,2.69,2.69,0,0,1,.53.18,13.82,13.82,0,0,0,1.49.52,17.59,17.59,0,0,0,5.72.72,20.84,20.84,0,0,0,8.27-2.09,26.38,26.38,0,0,0,8.19-6.49,31.84,31.84,0,0,0,5.42-9,38.29,38.29,0,0,0,1.43-4.38c.38-1.4.71-2.7,1-3.91a18.73,18.73,0,0,0,.47-5.76A13.85,13.85,0,0,0,257.42,227.51Z"/><path class="cls-8" d="M246.68,193.14l-.4.1a7.27,7.27,0,0,0-1.16.32,10.23,10.23,0,0,0-3.85,2.46,21.22,21.22,0,0,0-4.11,6c-1.26,2.55-2.27,5.68-4,8.83a16.82,16.82,0,0,1-3.49,4.48,11.16,11.16,0,0,1-5.56,2.59,23.52,23.52,0,0,1-6.59,0c-2.25-.25-4.53-.64-6.9-.75a20.11,20.11,0,0,0-3.57.13,12.5,12.5,0,0,0-3.46,1.06,16.75,16.75,0,0,0-5.64,4.89c-1.61,2-3.05,4.22-4.75,6.31a23.88,23.88,0,0,1-2.82,2.93,15.54,15.54,0,0,1-3.49,2.21,17.76,17.76,0,0,1-8,1.6,19,19,0,0,1-7.69-1.91,16,16,0,0,1-5.9-4.87,37.9,37.9,0,0,1-3.47-6.46,30.49,30.49,0,0,0-3.36-6,11.46,11.46,0,0,0-2.33-2.29l-.66-.46-.7-.38a11.38,11.38,0,0,0-1.44-.62,21.7,21.7,0,0,0-6-.9c-2-.07-3.85-.07-5.65-.24a15.7,15.7,0,0,1-5-1.21A9.56,9.56,0,0,1,133,208.1a11.48,11.48,0,0,1-2.45-6.84,10.08,10.08,0,0,1,.91-4.53,6.52,6.52,0,0,1,.58-1.06c.15-.23.23-.34.23-.34s-.06.13-.19.36a7.45,7.45,0,0,0-.54,1.07,10.22,10.22,0,0,0-.82,4.49,11.36,11.36,0,0,0,2.47,6.7,9.32,9.32,0,0,0,3.55,2.72,15.46,15.46,0,0,0,4.93,1.15c1.78.16,3.67.15,5.63.21a22,22,0,0,1,6.09.89,11.71,11.71,0,0,1,1.49.64l.73.39.69.47a11.82,11.82,0,0,1,2.41,2.36,30.75,30.75,0,0,1,3.42,6.09,37.67,37.67,0,0,0,3.44,6.39,15.61,15.61,0,0,0,5.75,4.73,18.63,18.63,0,0,0,7.52,1.86,17.35,17.35,0,0,0,7.8-1.56,15.12,15.12,0,0,0,3.4-2.15,23.48,23.48,0,0,0,2.77-2.88c1.68-2.06,3.13-4.27,4.75-6.3a17.14,17.14,0,0,1,5.79-5,12.9,12.9,0,0,1,3.58-1.09,20.46,20.46,0,0,1,3.64-.13c2.4.11,4.69.51,6.92.77a23.22,23.22,0,0,0,6.48,0,10.82,10.82,0,0,0,5.4-2.49,16.55,16.55,0,0,0,3.44-4.37c1.77-3.12,2.8-6.23,4.1-8.79a21.14,21.14,0,0,1,4.21-6,10.09,10.09,0,0,1,3.94-2.42,6.39,6.39,0,0,1,1.18-.28Z"/><path class="cls-8" d="M222.58,267.23l-.28.15a5.31,5.31,0,0,1-.86.35,4.87,4.87,0,0,1-3.51-.25,38.49,38.49,0,0,1-4.79-3c-1.82-1.23-3.72-2.87-6.06-4.29a15.39,15.39,0,0,0-3.92-1.7,15.21,15.21,0,0,0-4.6-.43,24.72,24.72,0,0,0-9.77,2.93,87,87,0,0,0-9.62,6.12,42.35,42.35,0,0,1-10.87,5.75,20.21,20.21,0,0,1-12.21,0,43.75,43.75,0,0,1-10.35-4.91c-3.11-1.92-6-3.87-8.77-5.49a37.48,37.48,0,0,0-8.17-3.66,20.29,20.29,0,0,0-7.3-.81,14.39,14.39,0,0,0-9.24,4.16,1.68,1.68,0,0,1,.21-.24c.15-.15.36-.38.65-.66a13.66,13.66,0,0,1,2.94-2,15.31,15.31,0,0,1,5.42-1.5,20.38,20.38,0,0,1,7.41.75,37.45,37.45,0,0,1,8.27,3.64c2.83,1.61,5.7,3.55,8.8,5.46a43.61,43.61,0,0,0,10.26,4.85,19.82,19.82,0,0,0,12,0,42.16,42.16,0,0,0,10.76-5.68,86.33,86.33,0,0,1,9.68-6.12,25,25,0,0,1,9.93-2.93,14.43,14.43,0,0,1,8.69,2.23c2.37,1.46,4.25,3.11,6,4.35a40.13,40.13,0,0,0,4.72,3,4.85,4.85,0,0,0,3.41.32C222.2,267.43,222.56,267.2,222.58,267.23Z"/><path class="cls-8" d="M175,314.85a2,2,0,0,1-.38-.29l-1-.9-3.75-3.34a65.74,65.74,0,0,0-13.45-9.52,34.47,34.47,0,0,0-8.55-2.94,27,27,0,0,0-7.37-.47,22.47,22.47,0,0,0-4.9.92c-1.13.35-1.74.6-1.75.56a2,2,0,0,1,.43-.21,13.2,13.2,0,0,1,1.27-.51,20.57,20.57,0,0,1,4.93-1.07,26.35,26.35,0,0,1,7.47.38,33.9,33.9,0,0,1,8.67,2.95A61.83,61.83,0,0,1,170,310.08c1.57,1.43,2.81,2.62,3.66,3.44l1,1A2,2,0,0,1,175,314.85Z"/><path class="cls-8" d="M233.52,324.69a12.17,12.17,0,0,0-1.56-2.29,11.16,11.16,0,0,0-6.65-3.26,16.32,16.32,0,0,0-5.19,0,24.54,24.54,0,0,0-5.7,1.83c-1.94.85-3.91,1.9-6,3a42.17,42.17,0,0,1-6.61,2.87,30.18,30.18,0,0,1-3.55.92,31.89,31.89,0,0,1-3.54.41,14.6,14.6,0,0,1-1.73.06c-.57,0-1.14,0-1.7,0a32.49,32.49,0,0,1-3.27-.36,30.9,30.9,0,0,1-10.68-3.74,28.46,28.46,0,0,1-6.08-4.63c-.66-.62-1.08-1.19-1.4-1.54a4.5,4.5,0,0,1-.45-.56,4.57,4.57,0,0,1,.52.51c.34.33.78.88,1.45,1.48a29.92,29.92,0,0,0,6.11,4.48,31.12,31.12,0,0,0,10.59,3.62c1,.19,2.13.25,3.23.34.55,0,1.11,0,1.68,0a14.37,14.37,0,0,0,1.71-.06,31.85,31.85,0,0,0,3.48-.41,30,30,0,0,0,3.5-.91,42.39,42.39,0,0,0,6.55-2.83c2.06-1.05,4-2.1,6-2.95a24.6,24.6,0,0,1,5.8-1.82,16.45,16.45,0,0,1,5.3,0,11.15,11.15,0,0,1,6.73,3.45l.41.49c.12.16.21.33.31.47a4.29,4.29,0,0,1,.43.77A4.51,4.51,0,0,1,233.52,324.69Z"/><path class="cls-8" d="M239,338.83l-.31,0-.89-.12a24.21,24.21,0,0,0-3.44-.17,28.61,28.61,0,0,0-5.4.69,41,41,0,0,0-6.86,2.25,78,78,0,0,0-7.85,3.9c-2.76,1.54-5.67,3.25-8.82,4.9a49.83,49.83,0,0,1-10.36,4.17,28.84,28.84,0,0,1-12,.54,47.52,47.52,0,0,1-11.45-3.56c-3.55-1.56-6.86-3.29-10-4.93-6.25-3.36-12.15-5.91-17.38-7.11a34.87,34.87,0,0,0-7.14-1,25.75,25.75,0,0,0-5.42.49,17.83,17.83,0,0,0-1.93.48,10.93,10.93,0,0,0-1.38.46l-.84.31-.29.09.28-.13.83-.35a10.11,10.11,0,0,1,1.38-.5,17.08,17.08,0,0,1,1.93-.53,25.21,25.21,0,0,1,5.46-.57,34.56,34.56,0,0,1,7.21.9c5.27,1.17,11.23,3.71,17.5,7.05,3.16,1.63,6.47,3.35,10,4.9a47.38,47.38,0,0,0,11.35,3.52A28.5,28.5,0,0,0,195,354a49.79,49.79,0,0,0,10.29-4.11c3.15-1.63,6.07-3.33,8.83-4.86a76.67,76.67,0,0,1,7.91-3.87,40.47,40.47,0,0,1,6.92-2.2,27.9,27.9,0,0,1,5.45-.62,21.76,21.76,0,0,1,3.46.26l.89.16Z"/><path class="cls-8" d="M274.29,254.21a3.76,3.76,0,0,1-.41.51,13.72,13.72,0,0,0-1.16,1.47,26.58,26.58,0,0,0-3.11,6.12c-1.06,2.71-2,6.08-3.52,9.64a21.43,21.43,0,0,1-3.18,5.2,15.94,15.94,0,0,1-5.17,4,23.21,23.21,0,0,1-12.35,2,39.23,39.23,0,0,1-10-2.48c-2.74-1-4.88-2-6.36-2.73l-1.69-.82a3.73,3.73,0,0,1-.58-.31,3.71,3.71,0,0,1,.61.23l1.73.74c1.5.64,3.66,1.6,6.4,2.6a40,40,0,0,0,9.9,2.37,23,23,0,0,0,12.12-2,15.61,15.61,0,0,0,5-3.9,21.24,21.24,0,0,0,3.14-5.08c1.56-3.51,2.5-6.88,3.6-9.59a25.19,25.19,0,0,1,3.26-6.11,11.3,11.3,0,0,1,1.23-1.43A3.7,3.7,0,0,1,274.29,254.21Z"/><path class="cls-8" d="M283.45,267.09c-.07,0-.15-.3-.41-.71a3.42,3.42,0,0,0-3.27-1.5c-.48.07-.77.21-.81.15s.22-.29.74-.45a3.16,3.16,0,0,1,3.6,1.66C283.53,266.74,283.5,267.09,283.45,267.09Z"/><path class="cls-8" d="M281.77,261.64a3.48,3.48,0,0,1,.62.22,7.52,7.52,0,0,1,1.59,1,10.3,10.3,0,0,1,3.31,6,16.36,16.36,0,0,1,.1,4.79,40.42,40.42,0,0,1-1.07,5.38,117.45,117.45,0,0,1-3.56,12,38.9,38.9,0,0,1-6,11,25.94,25.94,0,0,1-7.85,6.55,21.89,21.89,0,0,1-3.65,1.5,19.1,19.1,0,0,1-2.92.6l-1.08.09c-.31,0-.58,0-.8,0a3.67,3.67,0,0,1-.65,0,3.75,3.75,0,0,1,.65-.06l.79,0,1.07-.13a20.43,20.43,0,0,0,2.87-.66,22.4,22.4,0,0,0,3.58-1.54,26.09,26.09,0,0,0,7.68-6.53,39.17,39.17,0,0,0,5.91-10.9,123.63,123.63,0,0,0,3.58-12,41.1,41.1,0,0,0,1.1-5.32,16.27,16.27,0,0,0,0-4.69,10.32,10.32,0,0,0-3.12-5.92A9.73,9.73,0,0,0,281.77,261.64Z"/><path class="cls-8" d="M276.94,243.83a10.71,10.71,0,0,0-7.34,1.23,6.84,6.84,0,0,1,7.34-1.23Z"/><path class="cls-8" d="M102.54,291.16a5.88,5.88,0,0,1-2,.56,9.73,9.73,0,0,1-5.63-1.22,14.62,14.62,0,0,1-3.26-2.35,20.7,20.7,0,0,1-2.9-3.58c-1.81-2.7-3.29-5.95-5.41-9a27.21,27.21,0,0,0-7.52-7.11A28.07,28.07,0,0,0,68,265a27.52,27.52,0,0,0-5.66-.93c-1.36-.07-2.11-.05-2.11-.1a2.6,2.6,0,0,1,.55,0c.36,0,.89-.06,1.57,0a25.32,25.32,0,0,1,5.74.81A27.61,27.61,0,0,1,76,268.14a27.16,27.16,0,0,1,7.66,7.19c2.15,3.08,3.62,6.33,5.39,9a20.71,20.71,0,0,0,2.82,3.54A14.56,14.56,0,0,0,95,290.23a9.82,9.82,0,0,0,5.47,1.32A14.17,14.17,0,0,0,102.54,291.16Z"/><path class="cls-8" d="M113.66,247.32a1.85,1.85,0,0,1-.46,0l-1.32-.15c-.57-.06-1.27-.16-2.07-.32s-1.73-.3-2.72-.57-2.1-.51-3.26-.89-2.38-.79-3.66-1.26a55.4,55.4,0,0,1-15.28-8.91c-1-.89-2-1.71-2.9-2.57s-1.67-1.64-2.38-2.4-1.3-1.47-1.84-2.09-1-1.18-1.3-1.65l-.78-1.07a1.85,1.85,0,0,1-.25-.39,1.88,1.88,0,0,1,.32.34l.84,1c.36.45.8,1,1.36,1.59s1.14,1.32,1.87,2,1.5,1.54,2.4,2.34,1.87,1.65,2.91,2.52a57.75,57.75,0,0,0,15.17,8.85c1.27.47,2.47.95,3.63,1.29s2.23.68,3.22.93,1.9.45,2.7.63,1.49.31,2.05.4l1.3.23A1.89,1.89,0,0,1,113.66,247.32Z"/><path class="cls-8" d="M114.62,303.61c-.08,0,.06-1.16-.09-3a21,21,0,0,0-.53-3.19,24.7,24.7,0,0,0-1.29-3.74,23.52,23.52,0,0,0-1.93-3.45,18,18,0,0,0-2.08-2.47c-1.32-1.29-2.33-1.87-2.28-1.94a2.91,2.91,0,0,1,.72.37,5.67,5.67,0,0,1,.79.54,8.92,8.92,0,0,1,1,.81,16.24,16.24,0,0,1,2.2,2.46,21.7,21.7,0,0,1,2,3.51,22.65,22.65,0,0,1,1.28,3.83,18.51,18.51,0,0,1,.44,3.26,10.7,10.7,0,0,1,0,1.27,6.62,6.62,0,0,1-.07,1A2.93,2.93,0,0,1,114.62,303.61Z"/><path class="cls-2" d="M203.53,279a1.56,1.56,0,0,1-.42,0l-1.22-.05-.88,0c-.32,0-.67-.09-1-.13a24,24,0,0,1-2.52-.42l-1.45-.32c-.5-.12-1-.29-1.55-.45a35.26,35.26,0,0,1-3.35-1.19,37,37,0,0,1-13.23-9.33,35.26,35.26,0,0,1-2.25-2.76c-.32-.45-.66-.87-.94-1.31l-.79-1.26a24.05,24.05,0,0,1-1.24-2.23c-.17-.34-.34-.64-.47-.93l-.34-.81-.45-1.13a1.56,1.56,0,0,1-.13-.4,1.6,1.6,0,0,1,.21.37l.53,1.09.37.79c.14.29.32.58.5.91.37.65.75,1.41,1.29,2.18l.81,1.23c.28.43.63.84,1,1.28.64.9,1.44,1.77,2.25,2.7a38.06,38.06,0,0,0,13.09,9.24c1.15.45,2.24.92,3.3,1.22.53.16,1,.34,1.53.47l1.43.35c.91.25,1.75.35,2.49.48.37.06.71.13,1,.17l.87.08,1.21.13A1.6,1.6,0,0,1,203.53,279Z"/><path class="cls-2" d="M128.09,219a.92.92,0,0,1,0,.23l-.18.65-.73,2.47-.54,1.78-.48,2.16-.56,2.48c-.2.88-.3,1.83-.46,2.81l-.47,3.1-.3,3.39-.16,1.79c0,.61,0,1.22-.06,1.85l-.11,3.86a135,135,0,0,0,1.26,17.15c.86,6,2.09,11.74,3.35,16.88.69,2.55,1.3,5,2,7.24l1,3.26,1,3c.61,1.91,1.23,3.61,1.76,5.11s1,2.79,1.41,3.83l.91,2.41.23.63a.91.91,0,0,1,.06.22.9.9,0,0,1-.1-.2l-.27-.62-1-2.39c-.43-1-.93-2.31-1.48-3.81s-1.2-3.19-1.83-5.09l-1-3-1-3.26c-.72-2.25-1.34-4.69-2-7.25a166.32,166.32,0,0,1-3.4-16.92,131.23,131.23,0,0,1-1.23-17.21l.13-3.88c0-.63,0-1.25.07-1.86L124,238l.32-3.4.5-3.11c.18-1,.28-1.94.49-2.82l.59-2.49.52-2.16.57-1.78.81-2.45.22-.63A.9.9,0,0,1,128.09,219Z"/><path class="cls-2" d="M170.66,198.43a13.7,13.7,0,0,1,3.14-8.62c.11.07-1,1.8-1.9,4.19S170.79,198.45,170.66,198.43Z"/><path class="cls-2" d="M157.59,193.33a11.22,11.22,0,0,1,5.62-6.27c.07.11-1.55,1.13-3.1,2.88S157.71,193.39,157.59,193.33Z"/><path class="cls-2" d="M185.84,199.7a40.56,40.56,0,0,1-.34-4.31,40.61,40.61,0,0,1-.32-4.31,22.43,22.43,0,0,1,.66,8.63Z"/><path class="cls-2" d="M203.32,197.74a12.79,12.79,0,0,0-3-9,3.45,3.45,0,0,1,1.08,1,9.72,9.72,0,0,1,2.22,6.58A3.45,3.45,0,0,1,203.32,197.74Z"/><g class="cls-7"><path d="M209.43,185.63,205,187.11c2.55,15,5.87,33,8.42,48,.75,4.39,1.56,9,4.18,12.56,2.76,3.8,7.35,6.28,9,10.66C221.29,234.6,215.81,209.1,209.43,185.63Z"/></g><path class="cls-6" d="M129.09,138.31s.13-3.9.06-7.36a2.57,2.57,0,0,1,2.58-2.62h28.56l4.75-9.86a5,5,0,0,1,4.22-2.3h13.1a5,5,0,0,1,4.07,2.08l5,7,9.29,1.55a3.6,3.6,0,0,1,3,3.39l1.74,39.67H129.09Z"/><rect class="cls-9" x="170.1" y="118.19" width="10.46" height="4.95"/><circle class="cls-6" cx="173.98" cy="146.19" r="16.7"/><circle class="cls-10" cx="173.98" cy="146.19" r="16.7"/><circle class="cls-2" cx="173.98" cy="146.19" r="13.36"/><path class="cls-2" d="M191.93,146.19a1.47,1.47,0,0,1,0-.29l-.06-.85,0-.63c0-.23-.08-.48-.12-.75a13.13,13.13,0,0,0-.38-1.85,17.15,17.15,0,0,0-2-4.74,17.78,17.78,0,0,0-21.35-7.56,16.31,16.31,0,0,0-4.49,2.42,16.23,16.23,0,0,0-3.75,3.77,17.18,17.18,0,0,0-2.53,4.88,17.58,17.58,0,0,0,0,11.19,17.18,17.18,0,0,0,2.53,4.89,16.23,16.23,0,0,0,3.75,3.77,16.31,16.31,0,0,0,4.49,2.42,17.82,17.82,0,0,0,21.35-7.57,17.15,17.15,0,0,0,2-4.74,13.13,13.13,0,0,0,.38-1.85c0-.27.09-.52.12-.75l0-.63.06-.85a1.47,1.47,0,0,1,0-.29,1.44,1.44,0,0,1,0,.29l0,.86,0,.63c0,.23-.06.48-.1.76a12.71,12.71,0,0,1-.35,1.87,17,17,0,0,1-2,4.82A18.07,18.07,0,0,1,177.33,164a18.15,18.15,0,0,1-9.53-.76,16.67,16.67,0,0,1-4.6-2.46,16.61,16.61,0,0,1-3.84-3.85,17.56,17.56,0,0,1-2.6-5,18,18,0,0,1,0-11.46,17.56,17.56,0,0,1,2.6-5,16.6,16.6,0,0,1,3.84-3.85,16.67,16.67,0,0,1,4.6-2.46,18.15,18.15,0,0,1,9.53-.76A18.07,18.07,0,0,1,189.5,137a17,17,0,0,1,2,4.82,12.69,12.69,0,0,1,.35,1.87c0,.27.08.52.1.76l0,.63,0,.86A1.44,1.44,0,0,1,191.93,146.19Z"/><path class="cls-9" d="M169.25,155.44c-.09.23-1.72-.13-3.53-2a10.79,10.79,0,0,1-2.37-3.83A10.57,10.57,0,0,1,165.23,139a10.79,10.79,0,0,1,3.53-2.79c2.34-1.12,4-.9,4-.65s-1.4.68-3.22,2a11.79,11.79,0,0,0-2.74,2.7,9.77,9.77,0,0,0-1.55,8.76,11.79,11.79,0,0,0,1.65,3.47C168.17,154.32,169.42,155.15,169.25,155.44Z"/><path class="cls-2" d="M159.61,130.51a5.89,5.89,0,0,1-1,.51,13.35,13.35,0,0,1-1.26.51c-.5.18-1.06.4-1.7.58a34.75,34.75,0,0,1-4.56,1.07,37.59,37.59,0,0,1-11.44.11,35.12,35.12,0,0,1-4.58-1c-.65-.16-1.21-.37-1.71-.54s-.93-.33-1.27-.48a5.88,5.88,0,0,1-1-.49,5.94,5.94,0,0,1,1.11.33c.35.12.78.27,1.29.41s1.07.33,1.72.48a39.74,39.74,0,0,0,4.55.88,40.33,40.33,0,0,0,11.32-.11,39.3,39.3,0,0,0,4.53-1c.64-.16,1.21-.36,1.71-.51s.93-.3,1.28-.44A5.93,5.93,0,0,1,159.61,130.51Z"/><path class="cls-2" d="M159.54,161.32a3,3,0,0,1,.17.66,5.11,5.11,0,0,1-.08,2,5.91,5.91,0,0,1-1.45,2.74,5.82,5.82,0,0,1-3.68,1.76c-1.53.21-3.19,0-5,.11s-3.65.3-5.66.43a19.51,19.51,0,0,1-6.3-.41,9.65,9.65,0,0,1-5.66-3.67,8.2,8.2,0,0,1-1.25-3.25,21.86,21.86,0,0,1-.27-3.34l-.12-6.27-.19-10.62-.09-7.16q0-1.22,0-1.95a4,4,0,0,1,0-.68,4,4,0,0,1,.06.68l.08,1.95.23,7.16.28,10.62.15,6.27c.06,2.14.17,4.48,1.46,6.35a9.26,9.26,0,0,0,5.41,3.5,19.28,19.28,0,0,0,6.16.43c2-.12,3.88-.34,5.67-.39s3.45.13,4.93-.05a5.59,5.59,0,0,0,3.55-1.63,5.83,5.83,0,0,0,1.46-2.61,5.4,5.4,0,0,0,.16-1.91C159.58,161.55,159.52,161.32,159.54,161.32Z"/><ellipse class="cls-2" cx="144.69" cy="150.34" rx="0.22" ry="12.72"/><ellipse class="cls-2" cx="139.05" cy="150.34" rx="0.22" ry="12.72"/><ellipse class="cls-2" cx="149.26" cy="150.04" rx="0.22" ry="12.54"/><path class="cls-2" d="M203.55,133s0-.27-.25-.68a3,3,0,0,0-1.39-1.28,7.16,7.16,0,0,0-2.84-.46l-3.64-.1c-2.58-.08-4.92-.18-6.61-.28a17.17,17.17,0,0,1-2.73-.24,17.18,17.18,0,0,1,2.74-.07c1.69,0,4,.07,6.61.15l3.64.13a7,7,0,0,1,3,.58,2.94,2.94,0,0,1,1.41,1.48A1.16,1.16,0,0,1,203.55,133Z"/><polygon class="cls-3" points="107.82 163.77 87.55 210.21 116.19 227.22 124.76 175.23 107.82 163.77"/><path class="cls-3" d="M107.72,142.65,122,121.08a6.22,6.22,0,0,1,7.52-2.33l15.2,6.16s-.19,4.73-4.33,4.1-12.61-2.27-12.61-2.27l-3.8,4.59Z"/><path class="cls-3" d="M145,149.52l-6.27-16.28a4.71,4.71,0,0,0-4.9-3l-19.24,2.1-6.84,10.3a4,4,0,0,0-.66,2.35l1.11,27.44,11.67,14.47,5.08-11.65h0a8,8,0,0,0,4.36-9.18l-1.51-6,5.91-2s-.52,6.54,2.4,6.46,4.42-11.48,4.42-11.48S145.92,152,145,149.52Z"/><path class="cls-4" d="M127.76,160.1s-.19-.13-.46-.45a3.28,3.28,0,0,1-.76-1.6,2.39,2.39,0,0,1,.2-1.25,2.78,2.78,0,0,1,.93-1.11,10.65,10.65,0,0,1,2.85-1.42l.07,0,.06.42c-2.2,0-4.19-.06-5.64-.11a12.53,12.53,0,0,1-2.33-.17,12.52,12.52,0,0,1,2.33-.14c1.44,0,3.43,0,5.64,0H132l-1.24.41-.07,0a11.12,11.12,0,0,0-2.75,1.33,2.25,2.25,0,0,0-1.06,2,3.5,3.5,0,0,0,.59,1.53C127.66,159.9,127.79,160.08,127.76,160.1Z"/><path class="cls-4" d="M133.67,158.09s.33-.22.83-.68a3.43,3.43,0,0,0,.72-1,4.74,4.74,0,0,0,.37-1.59,18.13,18.13,0,0,0-.22-4.33,25.37,25.37,0,0,0-.55-2.51,3.82,3.82,0,0,0-1.39-2.18,4.67,4.67,0,0,0-2.57-.53l-2.59-.12-4.39-.24-3-.2a5.26,5.26,0,0,1-1.08-.13,5.26,5.26,0,0,1,1.09,0l3,.06,4.39.14,2.59.1c.45,0,.91,0,1.39.08a3,3,0,0,1,1.41.51,4.21,4.21,0,0,1,1.55,2.43,24.15,24.15,0,0,1,.53,2.56,17.23,17.23,0,0,1,.13,4.43,4.81,4.81,0,0,1-.46,1.66,3.39,3.39,0,0,1-.82,1,3.88,3.88,0,0,1-.68.45C133.77,158.06,133.68,158.1,133.67,158.09Z"/><path class="cls-4" d="M120,139.08a7,7,0,0,1,1.26,0l3.45.06,5.11.14,3,.1c.53,0,1.05,0,1.6.08a3.87,3.87,0,0,1,1.66.47,3.69,3.69,0,0,1,1.18,1.26c.29.48.52,1,.77,1.42a26.33,26.33,0,0,1,1.21,2.79,20,20,0,0,1,1.17,5,15.22,15.22,0,0,1,0,3.46,9.05,9.05,0,0,1-.15.93,1,1,0,0,1-.09.32,25.92,25.92,0,0,0,0-4.68,20.85,20.85,0,0,0-1.24-4.9,27.32,27.32,0,0,0-1.22-2.74,6.17,6.17,0,0,0-1.79-2.51,7,7,0,0,0-3.06-.5l-3-.12-5.1-.23-3.44-.2A7.14,7.14,0,0,1,120,139.08Z"/><ellipse class="cls-4" cx="132.47" cy="137.31" rx="2.15" ry="0.22" transform="translate(-23.28 247.51) rotate(-81.31)"/><path class="cls-4" d="M134.82,130.23a2.82,2.82,0,0,1-.77.19c-.5.09-1.23.21-2.14.33-1.81.25-4.32.46-7.07.81-.69.09-1.37.16-2,.27a16.85,16.85,0,0,0-1.81.43,13,13,0,0,0-2.91,1.18,6.52,6.52,0,0,0-2,2,1.8,1.8,0,0,1,.32-.73,5.33,5.33,0,0,1,1.55-1.55,12.1,12.1,0,0,1,3-1.3,15.93,15.93,0,0,1,1.85-.47c.66-.12,1.33-.2,2-.29,2.76-.34,5.28-.51,7.09-.68A24.11,24.11,0,0,1,134.82,130.23Z"/><path class="cls-4" d="M127.06,123.65c.12,0,.29.66.49,1.48s.36,1.5.25,1.54-.46-.58-.67-1.44S126.95,123.66,127.06,123.65Z"/><path class="cls-4" d="M133,120.16a5,5,0,0,1,.92.27c.59.2,1.44.51,2.51.93,2.13.83,5.12,2.05,8.59,3.55l.12.05v.13a4.29,4.29,0,0,1-1.21,3,4.15,4.15,0,0,1-3.27,1.12c-1.3-.06-2.5-.36-3.68-.52s-2.32-.36-3.41-.56-2.13-.41-3.09-.65l-2.7-.62.16-.06-3,3.6-.84,1c-.2.22-.31.33-.32.32a1.65,1.65,0,0,1,.25-.38l.77-1,2.91-3.69.06-.08.1,0,2.72.57c1,.22,2,.42,3.08.61l3.41.54c1.18.15,2.4.45,3.63.5a3.74,3.74,0,0,0,3-1,3.9,3.9,0,0,0,1.11-2.71l.12.18c-3.45-1.52-6.42-2.8-8.52-3.69l-2.46-1A5.25,5.25,0,0,1,133,120.16Z"/><path class="cls-3" d="M257.75,229.17,231.9,176l-27-42.28A16,16,0,0,0,194,126.57c-6.68-1.13-16.17-2.4-19.81-1.29-3.91,1.19-1.09,3.9-1.09,3.9s4.35.89,10,1.94a9,9,0,0,1,6,4.08l1.3,2.09c3,4.91,3.39,8.63,4.1,16.2,0,0,0,4,0,4.09-.7,3.72-6.77,6.2-12.46,6.34a63.19,63.19,0,0,0-9.75,1l1.34,0a15,15,0,0,0-11,3.81,6.39,6.39,0,0,0-1.81,2.45,3,3,0,0,0,.36,2.92,3.45,3.45,0,0,0,3.52.83,26.55,26.55,0,0,0,3.51-1.51c4.34-1.82,9.31-.67,13.77.81s9,3.29,13.72,2.71c2.84-.35,6.06-1.49,8.33.26l2.7,2.54a18.09,18.09,0,0,1,2.79,7.19h0l17.55,73.8c6.3,1,12.79.27,20.15-5.5C254.15,247.85,258.28,238.07,257.75,229.17Z"/><path class="cls-3" d="M199,142.42s-1.07-11-1.64-12-12.43-6-11.4-7.67,4.13-.27,6.52.86,8.57,3.85,10.05,5.53,3.88,11.7,3.88,11.7Z"/><path class="cls-4" d="M186,122.75a1.12,1.12,0,0,1,.24.18l.67.58,2.52,2.25,0,0c1.53.82,3.49,1.87,5.74,3.14l1.74,1,.45.28a1.06,1.06,0,0,1,.42.44,4.18,4.18,0,0,1,.35,1.08,29.45,29.45,0,0,1,.46,4.61v-.05c.79,2.7,1.56,5.67,2.29,8.78,1.82,7.77,3.22,14.92,3.29,20.17a14.37,14.37,0,0,0,1.44,5.93,11.28,11.28,0,0,0,1.3,1.84l-.12-.09a3.79,3.79,0,0,1-.32-.31,7.4,7.4,0,0,1-1-1.36,14,14,0,0,1-1.6-6c-.15-5.24-1.59-12.33-3.41-20.1-.73-3.1-1.49-6.06-2.26-8.76v-.05a29.71,29.71,0,0,0-.42-4.54,3.89,3.89,0,0,0-.3-1c-.1-.25-.45-.4-.73-.59l-1.72-1-5.69-3.23h0l-2.45-2.33-.63-.62A1.12,1.12,0,0,1,186,122.75Z"/><path class="cls-4" d="M193.9,141.11a4.76,4.76,0,0,1,0,1c0,.66,0,1.61,0,2.78a23.93,23.93,0,0,0,.43,4.07,11.88,11.88,0,0,0,1.91,4.54,36.08,36.08,0,0,0,3.42,3.66c1.11,1.09,2.14,2,2.93,2.93a3.38,3.38,0,0,1,.8,1.42,5.52,5.52,0,0,1,.11,1.21,4.71,4.71,0,0,1,0,1,4.58,4.58,0,0,1-.13-1,6.16,6.16,0,0,0-.17-1.16,3.21,3.21,0,0,0-.79-1.28c-.79-.84-1.85-1.77-3-2.84a33.06,33.06,0,0,1-3.49-3.7,11.9,11.9,0,0,1-2-4.72,21.89,21.89,0,0,1-.34-4.14c0-1.18.07-2.13.12-2.79A4.53,4.53,0,0,1,193.9,141.11Z"/><path class="cls-4" d="M175,169.32a7.38,7.38,0,0,0-.24-1.81c-.34-.95-1.07-1.41-1-1.52s.25,0,.56.21a2.6,2.6,0,0,1,1,2.58C175.21,169.15,175.06,169.34,175,169.32Z"/><path class="cls-4" d="M194.51,159.37s-.1.19-.35.48A10,10,0,0,1,193,161a14.62,14.62,0,0,1-9.87,3.51,10,10,0,0,1-1.61-.16c-.38-.07-.58-.13-.57-.16s.84,0,2.18,0a16.38,16.38,0,0,0,9.67-3.44C193.88,159.94,194.45,159.32,194.51,159.37Z"/><path class="cls-4" d="M197.47,144.28a7.62,7.62,0,0,1-.78-1.06l-2-3-2.91-4.44-1.71-2.63a10.47,10.47,0,0,0-2-2.59,4.73,4.73,0,0,0-3.08-.71c-1.08,0-2.15,0-3.15,0a30.27,30.27,0,0,1-5.28-.75,27.2,27.2,0,0,1-3.44-1c-.4-.15-.7-.28-.9-.37s-.31-.15-.3-.16a9.69,9.69,0,0,1,1.26.37c.81.25,2,.6,3.45.9a32.61,32.61,0,0,0,5.24.65c1,0,2,0,3.12,0a5.1,5.1,0,0,1,3.35.79,10.57,10.57,0,0,1,2.09,2.71l1.68,2.65,2.83,4.49,1.88,3.05A7.66,7.66,0,0,1,197.47,144.28Z"/><path class="cls-4" d="M215.78,212.15s-.05-.16-.14-.49l-.38-1.46-1.45-5.67-5.37-21.25h0a12.43,12.43,0,0,0-1.66-3.29,9.27,9.27,0,0,0-2.87-2.59h0a4.62,4.62,0,0,0-1.34-.68,6.2,6.2,0,0,0-1.53-.23,16.81,16.81,0,0,0-3.22.35,23.27,23.27,0,0,1-3.38.44,18.09,18.09,0,0,1-3.52-.23,44,44,0,0,1-7.07-1.92,48,48,0,0,0-7.38-2.07,14.88,14.88,0,0,0-7.85.48c-1.27.45-2.43,1.26-3.84,1.64a4.54,4.54,0,0,1-2.18.07,2.78,2.78,0,0,1-1.83-1.27,3.23,3.23,0,0,1-.32-2.22,4.73,4.73,0,0,1,1-2,13.29,13.29,0,0,1,3.42-2.84,15.21,15.21,0,0,1,8.73-2.11l0,.42-1.34,0v-.42c1.19-.15,2.48-.44,3.75-.58s2.57-.28,3.87-.35,2.61-.06,3.9-.21a21.47,21.47,0,0,0,3.85-.77,15.41,15.41,0,0,0,3.62-1.58,6.76,6.76,0,0,0,2.71-2.76,4.41,4.41,0,0,0,.31-.91v-1q0-1,0-2v-1l-.1-1-.2-2.05a37.86,37.86,0,0,0-1.58-8.52,32.38,32.38,0,0,0-4.07-7.44A8.71,8.71,0,0,0,185,132a17.64,17.64,0,0,0-4-1L173,129.45h-.06l0,0a4.16,4.16,0,0,1-.81-1.15,2,2,0,0,1-.17-1.43,2.11,2.11,0,0,1,.9-1.12c.2-.12.41-.22.61-.32l.64-.23a18.38,18.38,0,0,1,5.22-.42,92.87,92.87,0,0,1,10,1l-.13.37a16,16,0,0,1-3-2.15,1.42,1.42,0,0,1-.48-.91.64.64,0,0,1,.09-.31l.16-.2a1.82,1.82,0,0,1,.38-.33,2.92,2.92,0,0,1,1.87-.25,13.85,13.85,0,0,1,3.39,1.14l3.14,1.46a64.82,64.82,0,0,1,6,3.08,13.25,13.25,0,0,1,1.36.94,5,5,0,0,1,.61.57,4.07,4.07,0,0,1,.45.71,22.66,22.66,0,0,1,1.17,3l0,0c.6.8,1.11,1.62,1.62,2.43l1.53,2.4,2.94,4.62,5.4,8.48,8.69,13.66,5.51,8.7,1.43,2.28c.32.52.47.79.47.79s-.18-.25-.52-.76l-1.47-2.25-5.58-8.65-8.75-13.61L210,142.35l-3-4.61-1.54-2.39c-.52-.81-1-1.63-1.62-2.41l0,0v0a22.41,22.41,0,0,0-1.16-2.91,3.76,3.76,0,0,0-.41-.64,4.73,4.73,0,0,0-.57-.52,13,13,0,0,0-1.32-.91,64.72,64.72,0,0,0-5.94-3.05l-3.14-1.46a13.53,13.53,0,0,0-3.29-1.1,2.57,2.57,0,0,0-1.62.2c-.09.09-.22.14-.29.26l-.12.15s0,.07,0,.12.19.43.38.63a15.76,15.76,0,0,0,2.95,2.07l.83.5-1-.13a92.77,92.77,0,0,0-10-1,18.08,18.08,0,0,0-5.09.41,2.59,2.59,0,0,0-1.87,1.39,2.48,2.48,0,0,0,.86,2.16L173,129l8.06,1.55,2,.4a9.26,9.26,0,0,1,2,.65,9.14,9.14,0,0,1,3.38,2.63,17.83,17.83,0,0,1,1.19,1.79c.37.61.75,1.21,1.12,1.83a21.84,21.84,0,0,1,1.83,3.94,38.21,38.21,0,0,1,1.61,8.61l.2,2.06.1,1v4.16a4.83,4.83,0,0,1-.34,1,7.18,7.18,0,0,1-2.87,2.95,15.83,15.83,0,0,1-3.72,1.62,21.88,21.88,0,0,1-3.93.79c-1.33.15-2.64.13-3.93.21s-2.57.18-3.84.34-2.48.42-3.79.58v-.42l1.34,0,0,.42a14.8,14.8,0,0,0-8.49,2,12.92,12.92,0,0,0-3.31,2.74,4.33,4.33,0,0,0-.91,1.84,2.83,2.83,0,0,0,.27,1.94,2.38,2.38,0,0,0,1.57,1.09,4.15,4.15,0,0,0,2-.06c1.32-.35,2.48-1.15,3.8-1.62a15.25,15.25,0,0,1,8.05-.48,48.26,48.26,0,0,1,7.43,2.1,43.77,43.77,0,0,0,7,1.92,17.77,17.77,0,0,0,3.45.23,23,23,0,0,0,3.34-.43,17.08,17.08,0,0,1,3.29-.34,6.5,6.5,0,0,1,1.61.24,4.91,4.91,0,0,1,1.44.74h0a9.56,9.56,0,0,1,2.95,2.68,12.69,12.69,0,0,1,1.69,3.37h0l5.25,21.28,1.38,5.68.35,1.47C215.75,212,215.78,212.15,215.78,212.15Z"/></svg>