<svg id="Layer_1" data-name="Layer 1" xmlns="http://www.w3.org/2000/svg" viewBox="0 0 351.9 352.4"><defs><style>.cls-1{fill:#b6e1dd;}.cls-2{fill:#cb1a70;}.cls-3{fill:#221e52;}.cls-4{fill:#fab698;}.cls-5{fill:#4f5781;}.cls-6{fill:none;stroke:#4f5781;stroke-linecap:round;stroke-linejoin:round;stroke-width:0.49px;}.cls-7{fill:#3c4364;}.cls-8{fill:#5263ad;}.cls-9{fill:#e9057e;}.cls-10{fill:#4b4856;}.cls-11{fill:#272730;}.cls-12{fill:#403e4d;}.cls-13{fill:#4355a5;}.cls-14{fill:#5e5a66;}.cls-15{fill:#1e1f26;}.cls-16{fill:#6c79b5;}.cls-17{fill:#364488;}.cls-18{fill:#f1f0f0;}.cls-19{fill:#4ea5dc;}.cls-20{fill:#fff;opacity:0.16;}</style></defs><title>print</title><rect class="cls-1" width="352.4" height="352.4"/><path class="cls-2" d="M186.76,84.58s-31.4,48.69-61.15,52.27l1.95,9.09s39.34,1.79,52-15.4S186.76,84.58,186.76,84.58Z"/><path class="cls-3" d="M168.44,39.75s-.17,8.84,4.83,11.39V38.26Z"/><path class="cls-4" d="M171.38,32.68s-1,31.28,9.07,34.52S198.26,60,198.07,52.33s-5-20.14-11.81-21.6S171.38,32.68,171.38,32.68Z"/><path class="cls-3" d="M170.42,27.55c2.93-.45,6-.61,8.64-1.75,4.23-1.82,12.39-8.77,16.7-3.87a12,12,0,0,1,1.95,3.66,40.11,40.11,0,0,1,2.82,9.55c.39,3.11-2.26,13.37-2.9,16.37-1.19,1.61-2.2-1.39-4.57-2.65a9.9,9.9,0,0,1-3.1-3.45c-.22-.39-1.53-4.37-.89-4.49-1.88.34-3.59,1.39-5.4,2a48.54,48.54,0,0,1-6.62,1.66c-4.91.89-13.18,1.28-15.77-4.11a8.5,8.5,0,0,1,2.95-10.82A14.63,14.63,0,0,1,170.42,27.55Z"/><ellipse class="cls-5" cx="183.22" cy="50.57" rx="1.02" ry="1.49" transform="translate(-5.76 30.26) rotate(-9.3)"/><ellipse class="cls-5" cx="175.14" cy="51.89" rx="1.02" ry="1.49" transform="translate(-6.08 28.99) rotate(-9.3)"/><path class="cls-6" d="M180.52,59.65s4,1,6.24-3.49"/><path class="cls-6" d="M177,51.89s1.56,2.93.89,3.89-.22,2.17,1.34,2.16"/><path class="cls-6" d="M173,49.09s1-2,2.61-.58"/><path class="cls-6" d="M181,47.31s1-2,2.61-.58"/><path class="cls-4" d="M219,79.82C207,73.5,196.7,47.62,196.7,47.62l-9.18,15s.13,1,.34,2.51c.3,2.26.79,5.75,1.31,9.33.54,3.84,1.14,7.77,1.61,10.42C192,91.73,223.63,82.23,219,79.82Z"/><path class="cls-2" d="M189.69,78.06l19.76-7.25s26.27,4.69,36,38.79-6.74,82.85-6.74,82.85l-59.55-1.93s.54-45.71-3.34-75.68C173.49,96.75,189.69,78.06,189.69,78.06Z"/><polygon class="cls-7" points="158.23 167.93 199.81 156.69 146.12 142.46 108.67 152.45 158.23 167.93"/><polygon class="cls-8" points="151.76 113.46 158.23 168.5 108.67 152.45 104.27 101.7 151.76 113.46"/><path class="cls-9" d="M244.43,146.66A82.08,82.08,0,0,1,235,165.87c-5.09,7.63-11.62,13.79-20.66,16.28a33.22,33.22,0,0,1-17.35,0c-5.9-1.58-11.88-3-17.78-4.65a158.48,158.48,0,0,1-31-12.28l-.91-.5q-3.64-1.95-7.06-4.06l3.95-7.46s.41.19,1.17.5l1.71.68c.79.3,1.73.64,2.8,1a76,76,0,0,0,20.38,4.06,40.53,40.53,0,0,0,19-3.25c9.55-4.44,16.46-14,18.36-24.3,1.94-10.46-1.72-19.4-4.43-29.2-1.27-4.59-1.9-9.51-.62-14.1,1.43-5.11,5.83-10.13,11.5-9.95,6.14.2,11.43,5,15.83,8.83a53.83,53.83,0,0,1,14.72,19.91C249.87,120,248.7,133.94,244.43,146.66Z"/><path class="cls-4" d="M144.17,153.23s-2.51-7.63-4.71-8.66-5.87-5-6-3.67,1,5.16,4,6c0,0-11.68-1.78-15.09-3.54s-3.49,9.25,0,11.3,17.9,6,17.9,6Z"/><circle class="cls-4" cx="193.29" cy="47.62" r="3.9" transform="translate(-4.68 68.53) rotate(-19.87)"/><polygon class="cls-10" points="91.1 284.51 243.59 251.08 70.38 258.31 72.85 274.46 91.1 284.51"/><polygon class="cls-11" points="94.8 223.43 94.8 253.55 82.57 245.05 81.15 223.43 94.8 223.43"/><polygon class="cls-12" points="209.64 240.05 213.5 250.01 215.56 251.38 218.06 261.77 258.05 277.33 264.26 273 261.74 266.52 258.36 264.71 246.93 245.58 230.58 245.93 226.34 235.01 215.02 234.21 209.64 240.05"/><path class="cls-13" d="M251.47,269.84,110.68,313.37l-4.33-5.21,144.13-41.61a1.72,1.72,0,0,1,2.11,1.12h0A1.72,1.72,0,0,1,251.47,269.84Z"/><path class="cls-13" d="M243.89,256.91,100.63,292.68l-1.85-5.81,144.13-33.25a1.72,1.72,0,0,1,2.11,1.12h0A1.72,1.72,0,0,1,243.89,256.91Z"/><path class="cls-12" d="M80.87,227.7v33.63L110,274.47s2.79-19.37-2.75-32.63L86.77,236.7v-9Z"/><path class="cls-11" d="M220.26,211v29.49l26.67,5.06a48.11,48.11,0,0,0-3.56-22.16l-17.94-4.5V211Z"/><path class="cls-14" d="M107.23,241.83l136.14-18.4s7.16,1.59,3.56,22.16L110,274.47S112.56,253.55,107.23,241.83Z"/><polygon class="cls-12" points="110.68 312.08 110.68 321.67 100.54 324.15 59.9 284.51 58.83 269.57 56.86 266.77 56.86 248.95 66.7 247.21 80.86 253.87 80.86 270.04 99.36 281.49 107.23 308.07 110.68 312.08"/><path class="cls-12" d="M110.37,255.77l137.5-21.56-.45-6.09a6.31,6.31,0,0,0-7.16-5.79l-135.8,18.81Z"/><path class="cls-15" d="M37.62,234.45l-10.7-.07c-9.93.88-18.5-6.65-18.5-16.24V180.57c0-9.42,10.7-17.55,20.48-16.94L229,176.83c8.89.55,15.82,7.63,15.86,16.2l0,7.12C244.94,208.61,46.38,233.67,37.62,234.45Z"/><path class="cls-13" d="M248.2,200.15a16.31,16.31,0,0,1-14.82,16.32L51.7,233.16l-13.23,1.22a16.31,16.31,0,0,1-17.8-16.24V180.57A16.31,16.31,0,0,1,38,164.3l13.24.85L97,168.09l135.88,8.74A16.31,16.31,0,0,1,248.16,193Z"/><path class="cls-12" d="M242.32,193.95l-4.84,11.24L99.64,211a118.9,118.9,0,0,0-.92-31.17C98.17,176.61,97.55,174,97,172c-.68-2.52-1.2-3.85-1.2-3.85l1.19-.11,135.88,8.74a16.18,16.18,0,0,1,5.9,1.52l1.28,2.53Z"/><path class="cls-16" d="M230,183.49,98.72,179.87C98.17,176.61,97.55,174,97,172l133.19,6.23a3,3,0,0,1,1.31.37,2.72,2.72,0,0,1,1,.9A2.62,2.62,0,0,1,230,183.49Z"/><path class="cls-16" d="M231.31,195.21,100,197.15c-.69-3.24-1.42-5.84-2-7.74l133.34.58a3,3,0,0,1,1.32.31,2.71,2.71,0,0,1,1,.85A2.62,2.62,0,0,1,231.31,195.21Z"/><polygon class="cls-12" points="98.78 228.84 110.68 227.7 113.95 214.95 110.11 211.5 101.3 209.92 96.78 212.97 98.78 228.84"/><path class="cls-13" d="M257.42,202.94v3.49L254,209.91v5l-15.69,1.11-4,.28-1.06-13.41a31.73,31.73,0,0,0-3.92-15.28l-2.25-4.11-2.75-7.38,4.08.25,20.68,1.27,4.18,8.24A37.54,37.54,0,0,1,257.42,202.94Z"/><path class="cls-12" d="M257.42,202.94v3.49L254,209.91v5l-15.69,1.11-1-13.14a31.78,31.78,0,0,0-3.92-15.28l-2.26-4.1-2.65-7.13,20.68,1.27,4.18,8.24A37.54,37.54,0,0,1,257.42,202.94Z"/><path class="cls-12" d="M101.3,209.92l132-7s11.41,4.88,11.57,12.67L110.68,227.7S109.37,211.88,101.3,209.92Z"/><path class="cls-13" d="M95.77,168l.06.19a103.31,103.31,0,0,1,2.35,54.46l-1.41,6.18"/><path class="cls-12" d="M51.7,233.16l-13.23,1.22a16.31,16.31,0,0,1-17.8-16.24V180.57A16.31,16.31,0,0,1,38,164.3l13.24.85.44.68S61,202.25,51.7,233.16Z"/><path class="cls-17" d="M81.19,202.93H67.83a6.78,6.78,0,0,1-6.76-6.23l-1.15-14.06A6.78,6.78,0,0,1,67,175.31l12.94.59a6.78,6.78,0,0,1,6.43,6l1.57,13.47A6.78,6.78,0,0,1,81.19,202.93Z"/><path class="cls-15" d="M84.31,202.93H71a6.78,6.78,0,0,1-6.76-6.23L63,182.64a6.78,6.78,0,0,1,7.07-7.33l12.94.59a6.78,6.78,0,0,1,6.43,6L91,195.37A6.78,6.78,0,0,1,84.31,202.93Z"/><path class="cls-18" d="M84.19,187.5,71,187.19a3.19,3.19,0,0,1-3.07-2.64l-.36-2.07a3.19,3.19,0,0,1,3.28-3.74l13.13.56a3.19,3.19,0,0,1,3,2.4l.47,1.82A3.19,3.19,0,0,1,84.19,187.5Z"/><path class="cls-18" d="M76.74,200.92,72,200.81a.6.6,0,0,1-.55-.6l-.12-1.59a.77.77,0,0,1,.7-.86l4.68.22a.59.59,0,0,1,.54.55l.21,1.48A.78.78,0,0,1,76.74,200.92Z"/><circle class="cls-18" cx="71.61" cy="191.01" r="1.23"/><circle class="cls-18" cx="76.49" cy="191.01" r="1.23"/><circle class="cls-18" cx="81.36" cy="191.01" r="1.23"/><circle class="cls-18" cx="86.23" cy="191.01" r="1.23"/><circle class="cls-18" cx="71.61" cy="195.18" r="1.23"/><circle class="cls-18" cx="76.49" cy="195.18" r="1.23"/><circle class="cls-18" cx="81.36" cy="195.18" r="1.23"/><circle class="cls-18" cx="86.23" cy="195.18" r="1.23"/><circle class="cls-18" cx="73.94" cy="214.82" r="3.64"/><circle class="cls-18" cx="85.76" cy="214.82" r="2.5"/><path class="cls-19" d="M361.9,302.1,248.78,347.36c-.31-1-.67-2-1.07-3.15-.06-.19-.13-.38-.2-.57-.27-.78-.57-1.59-.89-2.42-.08-.21-.16-.42-.24-.63l-.24-.64-.29-.74-.23-.59-.47-1.14-.07-.17-.49-1.16a94.89,94.89,0,0,0-4.7-9.51l-.26-.44c-.6-1-1.22-2-1.87-3l-.28-.42c-.56-.84-1.14-1.65-1.73-2.44l-.6-.77c-.3-.38-.61-.76-.93-1.13l-.31-.36-.4-.45-.43-.47-.37-.39-.62-.62-.51-.48c-.31-.29-.63-.58-1-.84s-.46-.38-.7-.57l-.44-.33-.39-.29-.21-.15-.51-.35-.52-.33-.42-.24-.16-.09-.54-.29-.45-.22-.24-.12c-.36-.16-.72-.31-1.08-.44l-.54-.19a45.22,45.22,0,0,0-11-2.24,26,26,0,0,0-10.59,1.38C186.34,316.26,182.45,338.61,166,343c-8.37,2.23-17.82,0-26.35-6.88-5.76-4.67-11.11-11.5-15.41-20.6a85.76,85.76,0,0,1-3.46-8.43,107.58,107.58,0,0,1-3.54-12.5,132.88,132.88,0,0,1-2.23-13.32q-.57-4.66-.84-9.69-.21-3.64-.27-7.46c-.12-7.72-.46-14.43-1-20.25-.07-.85-.15-1.69-.23-2.5-2.65-27-8.83-33.77-11.47-34.45l76.91-2.25L234.08,203s4.27-2.25,6.94,12.2q.21,1.14.4,2.42c.52,3.4,1,7.57,1.26,12.67.06.9.1,1.82.15,2.78q.18,3.9.26,8.51c.06,3.56.25,7.13.62,10.68q.34,3.27.88,6.51c.06.35.12.69.19,1,.14.78.29,1.57.45,2.35a68.15,68.15,0,0,0,6.82,19.35,36.33,36.33,0,0,0,11.76,13.1,22,22,0,0,0,2.52,1.41c11.86,5.63,25.37-1.46,37.81-4.46h0a45.27,45.27,0,0,1,5.91-1.06c14.52-1.51,27.13,5,40.79,8.63l1.22.35c1.26.37,2.55.79,3.87,1.19l.78.23.43.13.51.14c.5.15,1,.28,1.51.4l.37.08.53.12,1,.2.34.06Z"/><path class="cls-13" d="M361.43,302l.47.07L248.78,347.36c-.31-1-.67-2-1.07-3.15l-.2-.57q-.41-1.17-.89-2.42l-.24-.63-.25-.64-.29-.74-.24-.59-.47-1.14-.07-.16c-.16-.39-.33-.77-.49-1.16a93.53,93.53,0,0,0-4.7-9.51l-.26-.44c-.6-1-1.22-2-1.88-3l-.28-.42c-.56-.83-1.14-1.65-1.73-2.43l-.6-.77c-.3-.38-.61-.76-.92-1.12l-.31-.36-.4-.45-.43-.46-.37-.39-.62-.62-.51-.48c-.31-.29-.63-.57-.95-.84l-.7-.57-.44-.33-.39-.28-.21-.15-.51-.35-.52-.32-.41-.24-.16-.09-.54-.29-.45-.22-.24-.11c-.36-.16-.72-.31-1.08-.44l-.55-.19a45.11,45.11,0,0,0-11-2.24c22.77-3.06,71.9-14.23,90.78-17.41h0a44.77,44.77,0,0,1,5.91-1.06c14.52-1.51,27.13,5,40.79,8.63l1.22.35c1.26.37,2.55.79,3.87,1.19l.78.24.43.13.5.14c.5.14,1,.28,1.51.4l.37.09.53.12,1,.2Z"/><path class="cls-20" d="M266.34,296c-17.14,5.33-35.59,6.89-53.25,10.81a197.21,197.21,0,0,0-44.62,15.74c-9.5,4.71-18.74,10.23-28.76,13.51-5.76-4.67-11.11-11.5-15.41-20.6,11.43.09,23-2.08,34.12-4.9,31.69-8,61.95-21.2,93.65-29.08a36.33,36.33,0,0,0,11.76,13.1A22,22,0,0,0,266.34,296Z"/><path class="cls-20" d="M241.43,217.62c-1.56.57-3.13,1.1-4.71,1.62-31.67,10.47-64.71,17.27-95,31.34-10.6,4.92-21.32,11.3-27.54,21q-.21-3.64-.27-7.46c-.12-7.72-.46-14.43-1-20.25-.07-.85-.15-1.69-.23-2.5,10.86-8.81,23.14-16.1,35.54-22.62,9.73-5.12,19.71-9.88,29.9-14.08L234.08,203s4.27-2.25,6.94,12.2Q241.24,216.34,241.43,217.62Z"/><path class="cls-20" d="M244.78,259.81c-23.72,16.25-50.05,28.56-77.05,38.57-14.77,5.47-30.32,10.36-46,8.79l-.91-.11a107.58,107.58,0,0,1-3.54-12.5,132.88,132.88,0,0,1-2.23-13.32c4.94,2.09,10.88,1,16.18-.43,39.4-10.83,72.61-38.05,111.45-50.51.06.9.1,1.82.15,2.78q.18,3.9.26,8.51c.06,3.56.25,7.13.62,10.68q.34,3.27.88,6.51C244.65,259.12,244.72,259.47,244.78,259.81Z"/></svg>